<?xml version="1.0" encoding="UTF-8"?>
<svg width="22px" height="22px" viewBox="0 0 22 22" version="1.1" xmlns="http://www.w3.org/2000/svg" xmlns:xlink="http://www.w3.org/1999/xlink">
    <!-- Generator: Sketch 47.1 (45422) - http://www.bohemiancoding.com/sketch -->
    <title>Shape</title>
    <desc>Created with Sketch.</desc>
    <defs></defs>
    <g id="Welcome" stroke="none" stroke-width="1" fill="none" fill-rule="evenodd">
        <g id="Desktop-HD" transform="translate(-59.000000, -317.000000)" fill="#000000">
            <g id="instagram" transform="translate(59.000000, 317.000000)">
                <path d="M10.9999782,1.98202211 C13.9371191,1.98202211 14.2849947,1.99320024 15.4449003,2.04612169 C16.5173894,2.09506967 17.0998311,2.27426907 17.4874851,2.42486816 C18.0008931,2.62441524 18.3673699,2.86282379 18.752273,3.24772696 C19.1371762,3.63263014 19.3755848,3.99910686 19.5750882,4.51251486 C19.7257309,4.9001689 19.9049303,5.48261059 19.9538783,6.55505606 C20.0067998,7.71500533 20.0179779,8.06288095 20.0179779,11.0000218 C20.0179779,13.9371627 20.0067998,14.2850383 19.9538783,15.4449439 C19.9049303,16.5174331 19.7257309,17.0998748 19.5750882,17.4875288 C19.3755848,18.0009368 19.1371762,18.3674135 18.752273,18.7523167 C18.3673699,19.1372199 18.0008931,19.3756284 17.4874851,19.5751318 C17.0998311,19.7257746 16.5173894,19.904974 15.4449003,19.953922 C14.2851693,20.0068434 13.9372937,20.0180216 10.9999782,20.0180216 C8.06266263,20.0180216 7.71478701,20.0068434 6.55505606,19.953922 C5.48256692,19.904974 4.90012524,19.7257746 4.51251486,19.5751318 C3.9990632,19.3756284 3.63258647,19.1372199 3.2476833,18.7523167 C2.86278012,18.3674135 2.62437158,18.0009368 2.42486816,17.4875288 C2.2742254,17.0998748 2.09502601,16.5174331 2.04607803,15.4449876 C1.99315657,14.2850383 1.98197844,13.9371627 1.98197844,11.0000218 C1.98197844,8.06288095 1.99315657,7.71500533 2.04607803,6.55509972 C2.09502601,5.48261059 2.2742254,4.9001689 2.42486816,4.51251486 C2.62437158,3.99910686 2.86278012,3.63263014 3.2476833,3.24772696 C3.63258647,2.86282379 3.9990632,2.62441524 4.51251486,2.42486816 C4.90012524,2.27426907 5.48256692,2.09506967 6.55501239,2.04612169 C7.71496166,1.99320024 8.06283728,1.98202211 10.9999782,1.98202211 M10.9999782,0 C13.9874206,0 14.362019,0.0126627249 15.5352423,0.0661954863 C16.7061077,0.119640918 17.5056933,0.305564652 18.205418,0.577507587 C18.9287652,0.858620081 19.5422088,1.23474668 20.153731,1.84626896 C20.7652533,2.45779125 21.1413799,3.07123477 21.4224924,3.79458202 C21.6944353,4.49430674 21.8803591,5.29389232 21.9338045,6.46475773 C21.9873373,7.63798103 22,8.01257937 22,11.0000218 C22,13.9874643 21.9873373,14.3620626 21.9338045,15.5352859 C21.8803591,16.7061513 21.6944353,17.5057369 21.4224924,18.2054616 C21.1413799,18.9288089 20.7652533,19.5422524 20.153731,20.1537747 C19.5422088,20.765297 18.9287652,21.1414236 18.205418,21.4225361 C17.5056933,21.694479 16.7061077,21.8804027 15.5352423,21.9338482 C14.362019,21.9873809 13.9874206,22 10.9999782,22 C8.0125357,22 7.63798103,21.9873809 6.46471407,21.9338482 C5.29384865,21.8804027 4.49426307,21.694479 3.79453836,21.4225361 C3.07119111,21.1414236 2.45774758,20.765297 1.8462253,20.1537747 C1.23470301,19.5422524 0.858576416,18.9287652 0.577463922,18.2054616 C0.305520988,17.5057369 0.119597254,16.7061513 0.0661518217,15.5352859 C0.0126190604,14.3620626 0,13.9874643 0,11.0000218 C0,8.01257937 0.0126190604,7.63798103 0.0661518217,6.46475773 C0.119597254,5.29389232 0.305520988,4.49430674 0.577463922,3.79458202 C0.858576416,3.07123477 1.23470301,2.45779125 1.8462253,1.84626896 C2.45774758,1.23474668 3.07119111,0.858620081 3.79453836,0.577507587 C4.49426307,0.305564652 5.29384865,0.119640918 6.46471407,0.0661954863 C7.63798103,0.0126627249 8.0125357,0 10.9999782,0 Z M11.0218254,5.36904762 C7.89989627,5.36904762 5.36904762,7.89989627 5.36904762,11.0218254 C5.36904762,14.1437545 7.89989627,16.6746032 11.0218254,16.6746032 C14.1437545,16.6746032 16.6746032,14.1437545 16.6746032,11.0218254 C16.6746032,7.89989627 14.1437545,5.36904762 11.0218254,5.36904762 Z M11.0218254,14.6911823 C8.99531997,14.6911823 7.35246845,13.0483308 7.35246845,11.0218254 C7.35246845,8.99531997 8.99531997,7.35246845 11.0218254,7.35246845 C13.0483308,7.35246845 14.6911823,8.99531997 14.6911823,11.0218254 C14.6911823,13.0483308 13.0483308,14.6911823 11.0218254,14.6911823 Z M18.1587302,5.1071212 C18.1587302,4.38388442 17.5724648,3.79761905 16.849228,3.79761905 C16.1259912,3.79761905 15.5396825,4.38388442 15.5396825,5.1071212 C15.5396825,5.83035798 16.1259912,6.41666667 16.849228,6.41666667 C17.5724648,6.41666667 18.1587302,5.83035798 18.1587302,5.1071212 Z" id="Shape"></path>
            </g>
        </g>
    </g>
</svg>