<?xml version="1.0" encoding="UTF-8"?>
<svg width="21px" height="17px" viewBox="0 0 21 17" version="1.1" xmlns="http://www.w3.org/2000/svg" xmlns:xlink="http://www.w3.org/1999/xlink">
    <!-- Generator: Sketch 47.1 (45422) - http://www.bohemiancoding.com/sketch -->
    <title>Shape</title>
    <desc>Created with Sketch.</desc>
    <defs></defs>
    <g id="Welcome" stroke="none" stroke-width="1" fill="none" fill-rule="evenodd">
        <g id="Desktop-HD" transform="translate(-96.000000, -319.000000)" fill="#000000">
            <g id="twitter" transform="translate(96.000000, 319.000000)">
                <path d="M18.526149,2.68763542 C19.4160944,2.15722952 20.0989611,1.3161924 20.41944,0.314314603 C19.5861948,0.806658963 18.6654341,1.16271847 17.6830428,1.35548173 C16.899102,0.520583562 15.7786582,0 14.5386512,0 C12.1597112,0 10.231907,1.92149357 10.231907,4.29113101 C10.231907,4.62754586 10.2676528,4.95536617 10.3416094,5.26845298 C6.762106,5.08919544 3.58813171,3.38256536 1.46187709,0.784558717 C1.09086107,1.42055467 0.878851911,2.15722952 0.878851911,2.94301603 C0.878851911,4.43109923 1.63937313,5.74483605 2.7955626,6.51588907 C2.08927628,6.49378882 1.42489875,6.29856998 0.843106181,5.97934421 L0.843106181,6.03213925 C0.843106181,8.11201791 2.32717028,9.84688719 4.30058109,10.2397804 C3.93819334,10.3404593 3.55854904,10.3907988 3.1641134,10.3907988 C2.88677584,10.3907988 2.61560134,10.3650152 2.35428773,10.3146757 C2.90156718,12.0188502 4.49286846,13.2613751 6.37876387,13.2945255 C4.90332805,14.4461938 3.04578271,15.1313015 1.02799789,15.1313015 C0.680401479,15.1313015 0.336502905,15.1128846 0,15.0723675 C1.9068498,16.2891088 4.17115689,17 6.60433175,17 C14.5300229,17 18.8614193,10.4607829 18.8614193,4.78961433 C18.8614193,4.60299003 18.858954,4.41759353 18.8503258,4.23465261 C19.6921993,3.62935144 20.4243705,2.87303192 21,2.01235014 C20.2271527,2.35367615 19.3963726,2.58450094 18.526149,2.68763542 Z" id="Shape"></path>
            </g>
        </g>
    </g>
</svg>