<svg xmlns="http://www.w3.org/2000/svg" width="21" height="17" viewBox="0 0 21 17">
    <g fill="none" fill-rule="evenodd">
        <path d="M0 0h21v17H0z"/>
        <path fill="#989898" d="M18.526 2.688A4.295 4.295 0 0 0 20.42.314a8.641 8.641 0 0 1-2.736 1.041A4.302 4.302 0 0 0 14.539 0a4.299 4.299 0 0 0-4.197 5.268A12.246 12.246 0 0 1 1.462.785a4.29 4.29 0 0 0 1.334 5.731 4.337 4.337 0 0 1-1.953-.537v.053a4.295 4.295 0 0 0 3.458 4.208 4.23 4.23 0 0 1-1.137.15c-.277 0-.548-.025-.81-.075a4.307 4.307 0 0 0 4.025 2.98 8.665 8.665 0 0 1-5.351 1.836A8.61 8.61 0 0 1 0 15.072 12.237 12.237 0 0 0 6.604 17c7.926 0 12.257-6.54 12.257-12.21 0-.187-.002-.372-.01-.555A8.707 8.707 0 0 0 21 2.012a8.629 8.629 0 0 1-2.474.676z"/>
    </g>
</svg>
